<svg width="86" height="84" viewBox="0 0 86 84" fill="none" xmlns="http://www.w3.org/2000/svg">
<rect x="0.0615234" width="85.9385" height="83.2246" rx="14" fill="#B270A2"/>
<path d="M66.4001 17.3682H21.1693C17.0062 17.3682 13.6309 20.7755 13.6309 24.9781V55.4178C13.6309 59.6204 17.0062 63.0278 21.1693 63.0278H66.4001C70.5632 63.0278 73.9385 59.6204 73.9385 55.4178V24.9781C73.9385 20.7755 70.5632 17.3682 66.4001 17.3682ZM53.9918 37.6749L69.9485 23.8707C70.059 24.2274 70.1693 24.5842 70.1693 24.9781V55.4178C70.1693 55.6817 70.0699 55.9158 70.0184 56.1647L53.9918 37.6749ZM66.4001 21.1731C66.6504 21.1731 66.8712 21.2698 67.1068 21.3181L43.7847 41.4985L20.4626 21.3181C20.6982 21.2698 20.919 21.1731 21.1693 21.1731H66.4001ZM17.5492 56.161C17.4976 55.912 17.4001 55.6817 17.4001 55.4178V24.9781C17.4001 24.5842 17.5123 24.2274 17.6228 23.8707L33.574 37.6712L17.5492 56.161ZM21.1693 59.2228C20.7884 59.2228 20.4423 59.1113 20.0945 59.0035L36.4376 40.1496L42.559 45.4445C42.9105 45.7531 43.3485 45.9054 43.7847 45.9054C44.2209 45.9054 44.6589 45.7531 45.0104 45.4447L51.1318 40.1497L67.4749 59.0037C67.129 59.1113 66.7829 59.2228 66.4001 59.2228H21.1693Z" fill="white"/>
</svg>
