<svg width="86" height="84" viewBox="0 0 86 84" fill="none" xmlns="http://www.w3.org/2000/svg">
<rect width="85.9385" height="83.2246" rx="14" fill="#B270A2"/>
<path d="M53.9104 17.9988C56.4802 18.0018 58.9438 19.0336 60.761 20.868C62.5781 22.7023 63.6002 25.1894 63.6032 27.7835V52.6126C63.6008 55.2069 62.5788 57.6943 60.7616 59.5288C58.9444 61.3632 56.4803 62.3949 53.9104 62.3973H29.3145C26.7447 62.3943 24.281 61.3624 22.4639 59.5281C20.6468 57.6938 19.6247 55.2067 19.6217 52.6126V27.7835C19.6247 25.1894 20.6468 22.7023 22.4639 20.868C24.281 19.0336 26.7447 18.0018 29.3145 17.9988H53.9104ZM53.9104 14.6287H29.3145C25.8586 14.6293 22.5443 16.0154 20.1006 18.4823C17.6569 20.9492 16.2838 24.2948 16.2832 27.7835V52.6126C16.2832 56.1014 17.6561 59.4474 20.1 61.9144C22.5438 64.3815 25.8584 65.7674 29.3145 65.7674H53.9104C57.3665 65.7674 60.681 64.3815 63.1249 61.9144C65.5687 59.4474 66.9417 56.1014 66.9417 52.6126V27.7835C66.9417 24.2946 65.5687 20.9486 63.1249 18.4816C60.681 16.0146 57.3665 14.6287 53.9104 14.6287Z" fill="white"/>
<path d="M41.6136 32.0142C43.2173 32.0142 44.7849 32.4942 46.1183 33.3936C47.4516 34.293 48.4909 35.5713 49.1046 37.0669C49.7182 38.5625 49.8788 40.2083 49.566 41.796C49.2531 43.3837 48.4809 44.8422 47.3469 45.9868C46.213 47.1315 44.7683 47.9111 43.1955 48.2269C41.6226 48.5427 39.9924 48.3806 38.5108 47.7611C37.0292 47.1416 35.7629 46.0925 34.872 44.7465C33.9811 43.4005 33.5055 41.818 33.5055 40.1992C33.5079 38.0291 34.3629 35.9486 35.8829 34.4142C37.403 32.8797 39.464 32.0166 41.6136 32.0142M41.6136 28.644C39.3496 28.6436 37.1363 29.3209 35.2536 30.5903C33.371 31.8598 31.9035 33.6643 31.0368 35.7757C30.1701 37.8871 29.9431 40.2105 30.3845 42.4521C30.8259 44.6937 31.9159 46.7529 33.5166 48.3691C35.1174 49.9853 37.157 51.0861 39.3775 51.5321C41.598 51.9782 43.8996 51.7495 45.9913 50.875C48.0831 50.0004 49.8709 48.5194 51.1288 46.6191C52.3866 44.7188 53.058 42.4847 53.058 40.1992C53.0574 37.1351 51.8516 34.1967 49.7055 32.0299C47.5595 29.8631 44.6489 28.6452 41.6136 28.644V28.644Z" fill="white"/>
<path d="M53.4585 26.595C54.0301 26.595 54.4935 26.1272 54.4935 25.5502C54.4935 24.9732 54.0301 24.5055 53.4585 24.5055C52.8869 24.5055 52.4236 24.9732 52.4236 25.5502C52.4236 26.1272 52.8869 26.595 53.4585 26.595Z" fill="white" stroke="white" stroke-width="15" stroke-miterlimit="10"/>
</svg>
