<svg width="86" height="84" viewBox="0 0 86 84" fill="none" xmlns="http://www.w3.org/2000/svg">
<rect x="0.0307617" width="85.9385" height="83.2246" rx="14" fill="#B270A2"/>
<path d="M70.1751 38.6519C70.1133 45.2493 68.4331 50.4106 64.9386 54.8956C61.1864 59.7135 56.3003 62.7728 50.3216 64.0111C45.7035 64.9581 41.2092 64.5418 36.7973 62.9289C35.818 62.5647 34.8594 62.1381 33.9419 61.6282C33.6636 61.4721 33.4265 61.4513 33.1173 61.5553C28.9425 62.9185 24.7573 64.2713 20.5722 65.6136C20.3867 65.6761 20.1393 65.853 19.995 65.7177C19.83 65.5512 20.0362 65.3015 20.098 65.1037C20.933 62.5959 21.768 60.0777 22.6132 57.5699C23.1287 56.0402 23.6234 54.5209 24.1595 53.0017C24.3038 52.6063 24.2522 52.3045 24.0358 51.9403C22.974 50.1088 22.1906 48.1525 21.634 46.1026C20.5928 42.2524 20.4795 38.3606 21.2938 34.4688C22.1803 30.2232 24.0358 26.4354 26.8911 23.168C30.3444 19.2137 34.6016 16.6018 39.663 15.3427C42.8894 14.5415 46.1468 14.4166 49.4248 14.9577C53.713 15.6653 57.5786 17.3823 60.9493 20.1502C64.4541 23.0327 67.0105 26.6123 68.6186 30.9099C69.5051 33.2305 70.2061 37.0286 70.1751 38.6519ZM26.283 59.4325C28.8394 58.6001 31.2824 57.8092 33.7048 57.008C34.0244 56.9039 34.2821 56.9247 34.5604 57.112C35.4881 57.7364 36.488 58.2358 37.5189 58.6729C40.869 60.1089 44.3532 60.6292 47.9507 60.1609C52.3626 59.5886 56.2385 57.7988 59.4959 54.6874C63.5985 50.7644 65.7942 45.9569 65.99 40.2753C66.1756 34.7081 64.4026 29.8173 60.7019 25.6654C57.1869 21.7215 52.775 19.4739 47.5693 18.9119C43.044 18.4229 38.8074 19.4114 34.8903 21.784C31.5401 23.8235 28.9734 26.6019 27.1901 30.1087C25.2212 33.9693 24.5512 38.0692 25.1181 42.3668C25.5408 45.6135 26.6953 48.6 28.5508 51.2847C28.7569 51.5865 28.8188 51.8362 28.6951 52.19C28.3137 53.2514 27.9735 54.3232 27.6127 55.3846C27.1798 56.6958 26.7571 58.0069 26.283 59.4325Z" fill="white"/>
<path d="M33.1275 33.7507C33.179 31.2741 34.0449 29.4323 35.6839 27.965C36.2096 27.4863 36.8591 27.2782 37.5909 27.3823C37.9002 27.4239 38.2094 27.4551 38.5187 27.4343C39.0959 27.4031 39.4876 27.6841 39.6835 28.194C40.3741 30.0046 41.0442 31.8152 41.7142 33.6362C41.941 34.2606 41.5493 34.7497 41.2194 35.1971C40.838 35.7278 40.3741 36.1961 39.9206 36.6644C39.4567 37.143 39.3949 37.4136 39.7144 37.9963C41.5802 41.4199 44.1985 44.0525 47.7548 45.6759C47.8785 45.7279 48.0022 45.8007 48.1259 45.8632C48.6001 46.0817 49.0227 46.0297 49.3835 45.6134C50.0432 44.833 50.7648 44.115 51.373 43.2929C51.775 42.7518 52.0533 42.6582 52.6615 42.9287C54.4757 43.7196 56.1766 44.7185 57.9083 45.6863C58.2279 45.8632 58.3413 46.1337 58.331 46.5083C58.2382 49.5781 56.4961 51.1806 53.4346 51.8882C51.9502 52.2316 50.5792 51.857 49.2186 51.3575C46.3632 50.3169 43.6109 49.089 41.3019 47.0286C39.467 45.3845 37.8486 43.5531 36.4777 41.5031C35.4262 39.9214 34.3336 38.3709 33.7254 36.5291C33.3749 35.5509 33.1172 34.552 33.1275 33.7507Z" fill="white"/>
</svg>
